<?xml version="1.0" encoding="UTF-8"?><svg id="uuid-66b45c9e-6a50-4ada-baa3-7ff02942cfea" xmlns="http://www.w3.org/2000/svg" width="400.67" height="400.67" viewBox="0 0 400.67 400.67"><rect x="0" y="0" width="400.67" height="400.67" rx="82.52" ry="82.52" fill="#111" stroke-width="0"/><path d="m250.12,341.06c9.17-12.96,18.26-26.05,25.76-39.88,14.28-19.44,28.07-46.21,10.58-67.98-33.66-43.73-151.37-53.47-133.51-125.85.88-3.23,1.94-6.34,3.09-9.44,4.29-8.56,10.84-15.86,17.17-22.49,5.7-5.84,11.91-11.05,18.2-16.15-6.27,10.26-12.55,20.18-17.23,31.09-2.01,4.35-3.3,8.79-4.95,13.14-30.39,67.58,110.72,74.72,135.3,132.79,9.43,20.89,1.33,44.69-10.33,62.86-2.33,3.42-4.2,7.13-6.87,10.31-2.8,3.05-5.73,5.97-8.69,8.81-8.87,8.38-18.5,15.95-28.54,22.79h0Z" fill="#fff" stroke-width="0"/><path d="m190.75,341.4c9.16-13,18.28-26.1,25.82-39.92,15.12-20.63,28.95-47.68,9.3-70.12-33.02-39.3-134.04-50.67-133.91-110.48.07-8.03,2.34-15.52,5.03-22.89,6.33-12.38,16.1-21.96,26.05-31.01,3.09-2.64,6.18-5.22,9.36-7.72-8.2,13.04-16.82,27.07-21.24,41.65-15.79,33.46,7.19,51.24,34.34,66.43,13.78,7.54,28.29,14.1,42.46,21.26,18.35,9.43,37.59,19.57,50.67,36.28,20,25.78,9.53,55.53-7.08,79.83-1.09,1.75-2.15,3.53-3.55,5.07-5.64,6.09-11.64,11.71-17.88,16.94-6.23,5.25-12.72,10.09-19.39,14.67h0Z" fill="#fff" stroke-width="0"/></svg>